# xmcd
#
# Track frame offsets: 
#        150
#        19257
#        36246
#        45796
#        60307
#        85000
#        100789
#        114515
#        125554
#        135930
#        147455
#        160119
#
# Disc length: 2393 seconds
#
# Revision: 0
# Processed by: cddbd v1.5.2PL0 Copyright (c) Steve Scherf et al.
# Submitted via: ExactAudioCopyFreeDBPlugin 1.0
#
DISCID=9009570c
DTITLE=The Damned and Dirty - Hoodoo Down
DYEAR=2015
DGENRE=Blues
TTITLE0=Hoodoo Down
TTITLE1=Someone to ride the river with
TTITLE2=Turmoil
TTITLE3=The Devil's vacation
TTITLE4=The porch light
TTITLE5=Got me a good heart
TTITLE6=The golden stairs
TTITLE7=Bad day
TTITLE8=Alley cat
TTITLE9=Tell you about the Blues
TTITLE10=Walking stereotype
TTITLE11=The end of the road
EXTD=
EXTT0=
EXTT1=
EXTT2=
EXTT3=
EXTT4=
EXTT5=
EXTT6=
EXTT7=
EXTT8=
EXTT9=
EXTT10=
EXTT11=
PLAYORDER=
